%TF.GenerationSoftware,KiCad,Pcbnew,9.0.4*%
%TF.CreationDate,2026-05-15T12:53:48-04:00*%
%TF.ProjectId,PocketPlay-ESP32,506f636b-6574-4506-9c61-792d45535033,rev?*%
%TF.SameCoordinates,Original*%
%TF.FileFunction,Soldermask,Bot*%
%TF.FilePolarity,Negative*%
%FSLAX46Y46*%
G04 Gerber Fmt 4.6, Leading zero omitted, Abs format (unit mm)*
G04 Created by KiCad (PCBNEW 9.0.4) date 2026-05-15 12:53:48*
%MOMM*%
%LPD*%
G01*
G04 APERTURE LIST*
%ADD10R,1.700000X1.700000*%
%ADD11C,1.700000*%
%ADD12C,2.000000*%
G04 APERTURE END LIST*
D10*
%TO.C,J3*%
X49000002Y-32750000D03*
D11*
X49000002Y-35290000D03*
X49000002Y-37830000D03*
X49000002Y-40370000D03*
X49000002Y-42910000D03*
X49000002Y-45450000D03*
X49000002Y-47990000D03*
X49000002Y-50530000D03*
X49000002Y-53070000D03*
X49000002Y-55610000D03*
X49000002Y-58150000D03*
X49000002Y-60690000D03*
X49000002Y-63230000D03*
X49000002Y-65770000D03*
X49000002Y-68310000D03*
%TD*%
%TO.C,J2*%
X23770002Y-67810000D03*
X23770002Y-65270000D03*
X23770002Y-62730000D03*
X23770002Y-60190000D03*
X23770002Y-57650000D03*
X23770002Y-55110000D03*
X23770002Y-52570000D03*
X23770002Y-50030000D03*
X23770002Y-47490000D03*
X23770002Y-44950000D03*
X23770002Y-42410000D03*
X23770002Y-39870000D03*
X23770002Y-37330000D03*
X23770002Y-34790000D03*
D10*
X23770002Y-32250000D03*
%TD*%
D12*
%TO.C,SW5*%
X164750000Y-53250000D03*
X164750000Y-46750000D03*
X169250000Y-53250000D03*
X169250000Y-46750000D03*
%TD*%
%TO.C,SW3*%
X185500000Y-67250000D03*
X179000000Y-67250000D03*
X185500000Y-62750000D03*
X179000000Y-62750000D03*
%TD*%
%TO.C,SW2*%
X185500000Y-37250000D03*
X179000000Y-37250000D03*
X185500000Y-32750000D03*
X179000000Y-32750000D03*
%TD*%
D10*
%TO.C,J1*%
X80225000Y-58620000D03*
D11*
X80225000Y-56080000D03*
X80225000Y-53540000D03*
X80225000Y-51000000D03*
X80225000Y-48460000D03*
X80225000Y-45920000D03*
X80225000Y-43380000D03*
X80225000Y-40840000D03*
%TD*%
D12*
%TO.C,SW1*%
X215000000Y-38250000D03*
X215000000Y-31750000D03*
X219500000Y-38250000D03*
X219500000Y-31750000D03*
%TD*%
%TO.C,SW4*%
X199500000Y-46750000D03*
X199500000Y-53250000D03*
X195000000Y-46750000D03*
X195000000Y-53250000D03*
%TD*%
M02*
