%TF.GenerationSoftware,KiCad,Pcbnew,9.0.4*%
%TF.CreationDate,2026-05-15T12:53:48-04:00*%
%TF.ProjectId,PocketPlay-ESP32,506f636b-6574-4506-9c61-792d45535033,rev?*%
%TF.SameCoordinates,Original*%
%TF.FileFunction,Legend,Top*%
%TF.FilePolarity,Positive*%
%FSLAX46Y46*%
G04 Gerber Fmt 4.6, Leading zero omitted, Abs format (unit mm)*
G04 Created by KiCad (PCBNEW 9.0.4) date 2026-05-15 12:53:48*
%MOMM*%
%LPD*%
G01*
G04 APERTURE LIST*
%ADD10C,0.100000*%
%ADD11C,0.150000*%
%ADD12C,0.120000*%
G04 APERTURE END LIST*
D10*
X51303884Y-55872419D02*
X51303884Y-54872419D01*
X51303884Y-54872419D02*
X51541979Y-54872419D01*
X51541979Y-54872419D02*
X51684836Y-54920038D01*
X51684836Y-54920038D02*
X51780074Y-55015276D01*
X51780074Y-55015276D02*
X51827693Y-55110514D01*
X51827693Y-55110514D02*
X51875312Y-55300990D01*
X51875312Y-55300990D02*
X51875312Y-55443847D01*
X51875312Y-55443847D02*
X51827693Y-55634323D01*
X51827693Y-55634323D02*
X51780074Y-55729561D01*
X51780074Y-55729561D02*
X51684836Y-55824800D01*
X51684836Y-55824800D02*
X51541979Y-55872419D01*
X51541979Y-55872419D02*
X51303884Y-55872419D01*
X52208646Y-54872419D02*
X52827693Y-54872419D01*
X52827693Y-54872419D02*
X52494360Y-55253371D01*
X52494360Y-55253371D02*
X52637217Y-55253371D01*
X52637217Y-55253371D02*
X52732455Y-55300990D01*
X52732455Y-55300990D02*
X52780074Y-55348609D01*
X52780074Y-55348609D02*
X52827693Y-55443847D01*
X52827693Y-55443847D02*
X52827693Y-55681942D01*
X52827693Y-55681942D02*
X52780074Y-55777180D01*
X52780074Y-55777180D02*
X52732455Y-55824800D01*
X52732455Y-55824800D02*
X52637217Y-55872419D01*
X52637217Y-55872419D02*
X52351503Y-55872419D01*
X52351503Y-55872419D02*
X52256265Y-55824800D01*
X52256265Y-55824800D02*
X52208646Y-55777180D01*
X53208646Y-54967657D02*
X53256265Y-54920038D01*
X53256265Y-54920038D02*
X53351503Y-54872419D01*
X53351503Y-54872419D02*
X53589598Y-54872419D01*
X53589598Y-54872419D02*
X53684836Y-54920038D01*
X53684836Y-54920038D02*
X53732455Y-54967657D01*
X53732455Y-54967657D02*
X53780074Y-55062895D01*
X53780074Y-55062895D02*
X53780074Y-55158133D01*
X53780074Y-55158133D02*
X53732455Y-55300990D01*
X53732455Y-55300990D02*
X53161027Y-55872419D01*
X53161027Y-55872419D02*
X53780074Y-55872419D01*
X51303884Y-53872419D02*
X51303884Y-52872419D01*
X51303884Y-52872419D02*
X51541979Y-52872419D01*
X51541979Y-52872419D02*
X51684836Y-52920038D01*
X51684836Y-52920038D02*
X51780074Y-53015276D01*
X51780074Y-53015276D02*
X51827693Y-53110514D01*
X51827693Y-53110514D02*
X51875312Y-53300990D01*
X51875312Y-53300990D02*
X51875312Y-53443847D01*
X51875312Y-53443847D02*
X51827693Y-53634323D01*
X51827693Y-53634323D02*
X51780074Y-53729561D01*
X51780074Y-53729561D02*
X51684836Y-53824800D01*
X51684836Y-53824800D02*
X51541979Y-53872419D01*
X51541979Y-53872419D02*
X51303884Y-53872419D01*
X52208646Y-52872419D02*
X52827693Y-52872419D01*
X52827693Y-52872419D02*
X52494360Y-53253371D01*
X52494360Y-53253371D02*
X52637217Y-53253371D01*
X52637217Y-53253371D02*
X52732455Y-53300990D01*
X52732455Y-53300990D02*
X52780074Y-53348609D01*
X52780074Y-53348609D02*
X52827693Y-53443847D01*
X52827693Y-53443847D02*
X52827693Y-53681942D01*
X52827693Y-53681942D02*
X52780074Y-53777180D01*
X52780074Y-53777180D02*
X52732455Y-53824800D01*
X52732455Y-53824800D02*
X52637217Y-53872419D01*
X52637217Y-53872419D02*
X52351503Y-53872419D01*
X52351503Y-53872419D02*
X52256265Y-53824800D01*
X52256265Y-53824800D02*
X52208646Y-53777180D01*
X53161027Y-52872419D02*
X53780074Y-52872419D01*
X53780074Y-52872419D02*
X53446741Y-53253371D01*
X53446741Y-53253371D02*
X53589598Y-53253371D01*
X53589598Y-53253371D02*
X53684836Y-53300990D01*
X53684836Y-53300990D02*
X53732455Y-53348609D01*
X53732455Y-53348609D02*
X53780074Y-53443847D01*
X53780074Y-53443847D02*
X53780074Y-53681942D01*
X53780074Y-53681942D02*
X53732455Y-53777180D01*
X53732455Y-53777180D02*
X53684836Y-53824800D01*
X53684836Y-53824800D02*
X53589598Y-53872419D01*
X53589598Y-53872419D02*
X53303884Y-53872419D01*
X53303884Y-53872419D02*
X53208646Y-53824800D01*
X53208646Y-53824800D02*
X53161027Y-53777180D01*
X51303884Y-50872419D02*
X51303884Y-49872419D01*
X51303884Y-49872419D02*
X51541979Y-49872419D01*
X51541979Y-49872419D02*
X51684836Y-49920038D01*
X51684836Y-49920038D02*
X51780074Y-50015276D01*
X51780074Y-50015276D02*
X51827693Y-50110514D01*
X51827693Y-50110514D02*
X51875312Y-50300990D01*
X51875312Y-50300990D02*
X51875312Y-50443847D01*
X51875312Y-50443847D02*
X51827693Y-50634323D01*
X51827693Y-50634323D02*
X51780074Y-50729561D01*
X51780074Y-50729561D02*
X51684836Y-50824800D01*
X51684836Y-50824800D02*
X51541979Y-50872419D01*
X51541979Y-50872419D02*
X51303884Y-50872419D01*
X52256265Y-49967657D02*
X52303884Y-49920038D01*
X52303884Y-49920038D02*
X52399122Y-49872419D01*
X52399122Y-49872419D02*
X52637217Y-49872419D01*
X52637217Y-49872419D02*
X52732455Y-49920038D01*
X52732455Y-49920038D02*
X52780074Y-49967657D01*
X52780074Y-49967657D02*
X52827693Y-50062895D01*
X52827693Y-50062895D02*
X52827693Y-50158133D01*
X52827693Y-50158133D02*
X52780074Y-50300990D01*
X52780074Y-50300990D02*
X52208646Y-50872419D01*
X52208646Y-50872419D02*
X52827693Y-50872419D01*
X53732455Y-49872419D02*
X53256265Y-49872419D01*
X53256265Y-49872419D02*
X53208646Y-50348609D01*
X53208646Y-50348609D02*
X53256265Y-50300990D01*
X53256265Y-50300990D02*
X53351503Y-50253371D01*
X53351503Y-50253371D02*
X53589598Y-50253371D01*
X53589598Y-50253371D02*
X53684836Y-50300990D01*
X53684836Y-50300990D02*
X53732455Y-50348609D01*
X53732455Y-50348609D02*
X53780074Y-50443847D01*
X53780074Y-50443847D02*
X53780074Y-50681942D01*
X53780074Y-50681942D02*
X53732455Y-50777180D01*
X53732455Y-50777180D02*
X53684836Y-50824800D01*
X53684836Y-50824800D02*
X53589598Y-50872419D01*
X53589598Y-50872419D02*
X53351503Y-50872419D01*
X53351503Y-50872419D02*
X53256265Y-50824800D01*
X53256265Y-50824800D02*
X53208646Y-50777180D01*
X51303884Y-47872419D02*
X51303884Y-46872419D01*
X51303884Y-46872419D02*
X51541979Y-46872419D01*
X51541979Y-46872419D02*
X51684836Y-46920038D01*
X51684836Y-46920038D02*
X51780074Y-47015276D01*
X51780074Y-47015276D02*
X51827693Y-47110514D01*
X51827693Y-47110514D02*
X51875312Y-47300990D01*
X51875312Y-47300990D02*
X51875312Y-47443847D01*
X51875312Y-47443847D02*
X51827693Y-47634323D01*
X51827693Y-47634323D02*
X51780074Y-47729561D01*
X51780074Y-47729561D02*
X51684836Y-47824800D01*
X51684836Y-47824800D02*
X51541979Y-47872419D01*
X51541979Y-47872419D02*
X51303884Y-47872419D01*
X52256265Y-46967657D02*
X52303884Y-46920038D01*
X52303884Y-46920038D02*
X52399122Y-46872419D01*
X52399122Y-46872419D02*
X52637217Y-46872419D01*
X52637217Y-46872419D02*
X52732455Y-46920038D01*
X52732455Y-46920038D02*
X52780074Y-46967657D01*
X52780074Y-46967657D02*
X52827693Y-47062895D01*
X52827693Y-47062895D02*
X52827693Y-47158133D01*
X52827693Y-47158133D02*
X52780074Y-47300990D01*
X52780074Y-47300990D02*
X52208646Y-47872419D01*
X52208646Y-47872419D02*
X52827693Y-47872419D01*
X53684836Y-46872419D02*
X53494360Y-46872419D01*
X53494360Y-46872419D02*
X53399122Y-46920038D01*
X53399122Y-46920038D02*
X53351503Y-46967657D01*
X53351503Y-46967657D02*
X53256265Y-47110514D01*
X53256265Y-47110514D02*
X53208646Y-47300990D01*
X53208646Y-47300990D02*
X53208646Y-47681942D01*
X53208646Y-47681942D02*
X53256265Y-47777180D01*
X53256265Y-47777180D02*
X53303884Y-47824800D01*
X53303884Y-47824800D02*
X53399122Y-47872419D01*
X53399122Y-47872419D02*
X53589598Y-47872419D01*
X53589598Y-47872419D02*
X53684836Y-47824800D01*
X53684836Y-47824800D02*
X53732455Y-47777180D01*
X53732455Y-47777180D02*
X53780074Y-47681942D01*
X53780074Y-47681942D02*
X53780074Y-47443847D01*
X53780074Y-47443847D02*
X53732455Y-47348609D01*
X53732455Y-47348609D02*
X53684836Y-47300990D01*
X53684836Y-47300990D02*
X53589598Y-47253371D01*
X53589598Y-47253371D02*
X53399122Y-47253371D01*
X53399122Y-47253371D02*
X53303884Y-47300990D01*
X53303884Y-47300990D02*
X53256265Y-47348609D01*
X53256265Y-47348609D02*
X53208646Y-47443847D01*
X19303884Y-68872419D02*
X19303884Y-67872419D01*
X19303884Y-67872419D02*
X19541979Y-67872419D01*
X19541979Y-67872419D02*
X19684836Y-67920038D01*
X19684836Y-67920038D02*
X19780074Y-68015276D01*
X19780074Y-68015276D02*
X19827693Y-68110514D01*
X19827693Y-68110514D02*
X19875312Y-68300990D01*
X19875312Y-68300990D02*
X19875312Y-68443847D01*
X19875312Y-68443847D02*
X19827693Y-68634323D01*
X19827693Y-68634323D02*
X19780074Y-68729561D01*
X19780074Y-68729561D02*
X19684836Y-68824800D01*
X19684836Y-68824800D02*
X19541979Y-68872419D01*
X19541979Y-68872419D02*
X19303884Y-68872419D01*
X20256265Y-67967657D02*
X20303884Y-67920038D01*
X20303884Y-67920038D02*
X20399122Y-67872419D01*
X20399122Y-67872419D02*
X20637217Y-67872419D01*
X20637217Y-67872419D02*
X20732455Y-67920038D01*
X20732455Y-67920038D02*
X20780074Y-67967657D01*
X20780074Y-67967657D02*
X20827693Y-68062895D01*
X20827693Y-68062895D02*
X20827693Y-68158133D01*
X20827693Y-68158133D02*
X20780074Y-68300990D01*
X20780074Y-68300990D02*
X20208646Y-68872419D01*
X20208646Y-68872419D02*
X20827693Y-68872419D01*
X21161027Y-67872419D02*
X21780074Y-67872419D01*
X21780074Y-67872419D02*
X21446741Y-68253371D01*
X21446741Y-68253371D02*
X21589598Y-68253371D01*
X21589598Y-68253371D02*
X21684836Y-68300990D01*
X21684836Y-68300990D02*
X21732455Y-68348609D01*
X21732455Y-68348609D02*
X21780074Y-68443847D01*
X21780074Y-68443847D02*
X21780074Y-68681942D01*
X21780074Y-68681942D02*
X21732455Y-68777180D01*
X21732455Y-68777180D02*
X21684836Y-68824800D01*
X21684836Y-68824800D02*
X21589598Y-68872419D01*
X21589598Y-68872419D02*
X21303884Y-68872419D01*
X21303884Y-68872419D02*
X21208646Y-68824800D01*
X21208646Y-68824800D02*
X21161027Y-68777180D01*
X19303884Y-65872419D02*
X19303884Y-64872419D01*
X19303884Y-64872419D02*
X19541979Y-64872419D01*
X19541979Y-64872419D02*
X19684836Y-64920038D01*
X19684836Y-64920038D02*
X19780074Y-65015276D01*
X19780074Y-65015276D02*
X19827693Y-65110514D01*
X19827693Y-65110514D02*
X19875312Y-65300990D01*
X19875312Y-65300990D02*
X19875312Y-65443847D01*
X19875312Y-65443847D02*
X19827693Y-65634323D01*
X19827693Y-65634323D02*
X19780074Y-65729561D01*
X19780074Y-65729561D02*
X19684836Y-65824800D01*
X19684836Y-65824800D02*
X19541979Y-65872419D01*
X19541979Y-65872419D02*
X19303884Y-65872419D01*
X20256265Y-64967657D02*
X20303884Y-64920038D01*
X20303884Y-64920038D02*
X20399122Y-64872419D01*
X20399122Y-64872419D02*
X20637217Y-64872419D01*
X20637217Y-64872419D02*
X20732455Y-64920038D01*
X20732455Y-64920038D02*
X20780074Y-64967657D01*
X20780074Y-64967657D02*
X20827693Y-65062895D01*
X20827693Y-65062895D02*
X20827693Y-65158133D01*
X20827693Y-65158133D02*
X20780074Y-65300990D01*
X20780074Y-65300990D02*
X20208646Y-65872419D01*
X20208646Y-65872419D02*
X20827693Y-65872419D01*
X21208646Y-64967657D02*
X21256265Y-64920038D01*
X21256265Y-64920038D02*
X21351503Y-64872419D01*
X21351503Y-64872419D02*
X21589598Y-64872419D01*
X21589598Y-64872419D02*
X21684836Y-64920038D01*
X21684836Y-64920038D02*
X21732455Y-64967657D01*
X21732455Y-64967657D02*
X21780074Y-65062895D01*
X21780074Y-65062895D02*
X21780074Y-65158133D01*
X21780074Y-65158133D02*
X21732455Y-65300990D01*
X21732455Y-65300990D02*
X21161027Y-65872419D01*
X21161027Y-65872419D02*
X21780074Y-65872419D01*
X19303884Y-57872419D02*
X19303884Y-56872419D01*
X19303884Y-56872419D02*
X19541979Y-56872419D01*
X19541979Y-56872419D02*
X19684836Y-56920038D01*
X19684836Y-56920038D02*
X19780074Y-57015276D01*
X19780074Y-57015276D02*
X19827693Y-57110514D01*
X19827693Y-57110514D02*
X19875312Y-57300990D01*
X19875312Y-57300990D02*
X19875312Y-57443847D01*
X19875312Y-57443847D02*
X19827693Y-57634323D01*
X19827693Y-57634323D02*
X19780074Y-57729561D01*
X19780074Y-57729561D02*
X19684836Y-57824800D01*
X19684836Y-57824800D02*
X19541979Y-57872419D01*
X19541979Y-57872419D02*
X19303884Y-57872419D01*
X20256265Y-56967657D02*
X20303884Y-56920038D01*
X20303884Y-56920038D02*
X20399122Y-56872419D01*
X20399122Y-56872419D02*
X20637217Y-56872419D01*
X20637217Y-56872419D02*
X20732455Y-56920038D01*
X20732455Y-56920038D02*
X20780074Y-56967657D01*
X20780074Y-56967657D02*
X20827693Y-57062895D01*
X20827693Y-57062895D02*
X20827693Y-57158133D01*
X20827693Y-57158133D02*
X20780074Y-57300990D01*
X20780074Y-57300990D02*
X20208646Y-57872419D01*
X20208646Y-57872419D02*
X20827693Y-57872419D01*
X21780074Y-57872419D02*
X21208646Y-57872419D01*
X21494360Y-57872419D02*
X21494360Y-56872419D01*
X21494360Y-56872419D02*
X21399122Y-57015276D01*
X21399122Y-57015276D02*
X21303884Y-57110514D01*
X21303884Y-57110514D02*
X21208646Y-57158133D01*
X19303884Y-52872419D02*
X19303884Y-51872419D01*
X19303884Y-51872419D02*
X19541979Y-51872419D01*
X19541979Y-51872419D02*
X19684836Y-51920038D01*
X19684836Y-51920038D02*
X19780074Y-52015276D01*
X19780074Y-52015276D02*
X19827693Y-52110514D01*
X19827693Y-52110514D02*
X19875312Y-52300990D01*
X19875312Y-52300990D02*
X19875312Y-52443847D01*
X19875312Y-52443847D02*
X19827693Y-52634323D01*
X19827693Y-52634323D02*
X19780074Y-52729561D01*
X19780074Y-52729561D02*
X19684836Y-52824800D01*
X19684836Y-52824800D02*
X19541979Y-52872419D01*
X19541979Y-52872419D02*
X19303884Y-52872419D01*
X20827693Y-52872419D02*
X20256265Y-52872419D01*
X20541979Y-52872419D02*
X20541979Y-51872419D01*
X20541979Y-51872419D02*
X20446741Y-52015276D01*
X20446741Y-52015276D02*
X20351503Y-52110514D01*
X20351503Y-52110514D02*
X20256265Y-52158133D01*
X21399122Y-52300990D02*
X21303884Y-52253371D01*
X21303884Y-52253371D02*
X21256265Y-52205752D01*
X21256265Y-52205752D02*
X21208646Y-52110514D01*
X21208646Y-52110514D02*
X21208646Y-52062895D01*
X21208646Y-52062895D02*
X21256265Y-51967657D01*
X21256265Y-51967657D02*
X21303884Y-51920038D01*
X21303884Y-51920038D02*
X21399122Y-51872419D01*
X21399122Y-51872419D02*
X21589598Y-51872419D01*
X21589598Y-51872419D02*
X21684836Y-51920038D01*
X21684836Y-51920038D02*
X21732455Y-51967657D01*
X21732455Y-51967657D02*
X21780074Y-52062895D01*
X21780074Y-52062895D02*
X21780074Y-52110514D01*
X21780074Y-52110514D02*
X21732455Y-52205752D01*
X21732455Y-52205752D02*
X21684836Y-52253371D01*
X21684836Y-52253371D02*
X21589598Y-52300990D01*
X21589598Y-52300990D02*
X21399122Y-52300990D01*
X21399122Y-52300990D02*
X21303884Y-52348609D01*
X21303884Y-52348609D02*
X21256265Y-52396228D01*
X21256265Y-52396228D02*
X21208646Y-52491466D01*
X21208646Y-52491466D02*
X21208646Y-52681942D01*
X21208646Y-52681942D02*
X21256265Y-52777180D01*
X21256265Y-52777180D02*
X21303884Y-52824800D01*
X21303884Y-52824800D02*
X21399122Y-52872419D01*
X21399122Y-52872419D02*
X21589598Y-52872419D01*
X21589598Y-52872419D02*
X21684836Y-52824800D01*
X21684836Y-52824800D02*
X21732455Y-52777180D01*
X21732455Y-52777180D02*
X21780074Y-52681942D01*
X21780074Y-52681942D02*
X21780074Y-52491466D01*
X21780074Y-52491466D02*
X21732455Y-52396228D01*
X21732455Y-52396228D02*
X21684836Y-52348609D01*
X21684836Y-52348609D02*
X21589598Y-52300990D01*
X19303884Y-42872419D02*
X19303884Y-41872419D01*
X19303884Y-41872419D02*
X19541979Y-41872419D01*
X19541979Y-41872419D02*
X19684836Y-41920038D01*
X19684836Y-41920038D02*
X19780074Y-42015276D01*
X19780074Y-42015276D02*
X19827693Y-42110514D01*
X19827693Y-42110514D02*
X19875312Y-42300990D01*
X19875312Y-42300990D02*
X19875312Y-42443847D01*
X19875312Y-42443847D02*
X19827693Y-42634323D01*
X19827693Y-42634323D02*
X19780074Y-42729561D01*
X19780074Y-42729561D02*
X19684836Y-42824800D01*
X19684836Y-42824800D02*
X19541979Y-42872419D01*
X19541979Y-42872419D02*
X19303884Y-42872419D01*
X20732455Y-42205752D02*
X20732455Y-42872419D01*
X20494360Y-41824800D02*
X20256265Y-42539085D01*
X20256265Y-42539085D02*
X20875312Y-42539085D01*
X18827693Y-33920038D02*
X18732455Y-33872419D01*
X18732455Y-33872419D02*
X18589598Y-33872419D01*
X18589598Y-33872419D02*
X18446741Y-33920038D01*
X18446741Y-33920038D02*
X18351503Y-34015276D01*
X18351503Y-34015276D02*
X18303884Y-34110514D01*
X18303884Y-34110514D02*
X18256265Y-34300990D01*
X18256265Y-34300990D02*
X18256265Y-34443847D01*
X18256265Y-34443847D02*
X18303884Y-34634323D01*
X18303884Y-34634323D02*
X18351503Y-34729561D01*
X18351503Y-34729561D02*
X18446741Y-34824800D01*
X18446741Y-34824800D02*
X18589598Y-34872419D01*
X18589598Y-34872419D02*
X18684836Y-34872419D01*
X18684836Y-34872419D02*
X18827693Y-34824800D01*
X18827693Y-34824800D02*
X18875312Y-34777180D01*
X18875312Y-34777180D02*
X18875312Y-34443847D01*
X18875312Y-34443847D02*
X18684836Y-34443847D01*
X19303884Y-34872419D02*
X19303884Y-33872419D01*
X19303884Y-33872419D02*
X19875312Y-34872419D01*
X19875312Y-34872419D02*
X19875312Y-33872419D01*
X20351503Y-34872419D02*
X20351503Y-33872419D01*
X20351503Y-33872419D02*
X20589598Y-33872419D01*
X20589598Y-33872419D02*
X20732455Y-33920038D01*
X20732455Y-33920038D02*
X20827693Y-34015276D01*
X20827693Y-34015276D02*
X20875312Y-34110514D01*
X20875312Y-34110514D02*
X20922931Y-34300990D01*
X20922931Y-34300990D02*
X20922931Y-34443847D01*
X20922931Y-34443847D02*
X20875312Y-34634323D01*
X20875312Y-34634323D02*
X20827693Y-34729561D01*
X20827693Y-34729561D02*
X20732455Y-34824800D01*
X20732455Y-34824800D02*
X20589598Y-34872419D01*
X20589598Y-34872419D02*
X20351503Y-34872419D01*
X18208646Y-31872419D02*
X18827693Y-31872419D01*
X18827693Y-31872419D02*
X18494360Y-32253371D01*
X18494360Y-32253371D02*
X18637217Y-32253371D01*
X18637217Y-32253371D02*
X18732455Y-32300990D01*
X18732455Y-32300990D02*
X18780074Y-32348609D01*
X18780074Y-32348609D02*
X18827693Y-32443847D01*
X18827693Y-32443847D02*
X18827693Y-32681942D01*
X18827693Y-32681942D02*
X18780074Y-32777180D01*
X18780074Y-32777180D02*
X18732455Y-32824800D01*
X18732455Y-32824800D02*
X18637217Y-32872419D01*
X18637217Y-32872419D02*
X18351503Y-32872419D01*
X18351503Y-32872419D02*
X18256265Y-32824800D01*
X18256265Y-32824800D02*
X18208646Y-32777180D01*
X19256265Y-32777180D02*
X19303884Y-32824800D01*
X19303884Y-32824800D02*
X19256265Y-32872419D01*
X19256265Y-32872419D02*
X19208646Y-32824800D01*
X19208646Y-32824800D02*
X19256265Y-32777180D01*
X19256265Y-32777180D02*
X19256265Y-32872419D01*
X19637217Y-31872419D02*
X20256264Y-31872419D01*
X20256264Y-31872419D02*
X19922931Y-32253371D01*
X19922931Y-32253371D02*
X20065788Y-32253371D01*
X20065788Y-32253371D02*
X20161026Y-32300990D01*
X20161026Y-32300990D02*
X20208645Y-32348609D01*
X20208645Y-32348609D02*
X20256264Y-32443847D01*
X20256264Y-32443847D02*
X20256264Y-32681942D01*
X20256264Y-32681942D02*
X20208645Y-32777180D01*
X20208645Y-32777180D02*
X20161026Y-32824800D01*
X20161026Y-32824800D02*
X20065788Y-32872419D01*
X20065788Y-32872419D02*
X19780074Y-32872419D01*
X19780074Y-32872419D02*
X19684836Y-32824800D01*
X19684836Y-32824800D02*
X19637217Y-32777180D01*
X20541979Y-31872419D02*
X20875312Y-32872419D01*
X20875312Y-32872419D02*
X21208645Y-31872419D01*
X83351503Y-40671704D02*
X83422931Y-40695514D01*
X83422931Y-40695514D02*
X83446741Y-40719323D01*
X83446741Y-40719323D02*
X83470550Y-40766942D01*
X83470550Y-40766942D02*
X83470550Y-40838371D01*
X83470550Y-40838371D02*
X83446741Y-40885990D01*
X83446741Y-40885990D02*
X83422931Y-40909800D01*
X83422931Y-40909800D02*
X83375312Y-40933609D01*
X83375312Y-40933609D02*
X83184836Y-40933609D01*
X83184836Y-40933609D02*
X83184836Y-40433609D01*
X83184836Y-40433609D02*
X83351503Y-40433609D01*
X83351503Y-40433609D02*
X83399122Y-40457419D01*
X83399122Y-40457419D02*
X83422931Y-40481228D01*
X83422931Y-40481228D02*
X83446741Y-40528847D01*
X83446741Y-40528847D02*
X83446741Y-40576466D01*
X83446741Y-40576466D02*
X83422931Y-40624085D01*
X83422931Y-40624085D02*
X83399122Y-40647895D01*
X83399122Y-40647895D02*
X83351503Y-40671704D01*
X83351503Y-40671704D02*
X83184836Y-40671704D01*
X83922931Y-40933609D02*
X83684836Y-40933609D01*
X83684836Y-40933609D02*
X83684836Y-40433609D01*
X83470550Y-43885990D02*
X83446741Y-43909800D01*
X83446741Y-43909800D02*
X83375312Y-43933609D01*
X83375312Y-43933609D02*
X83327693Y-43933609D01*
X83327693Y-43933609D02*
X83256265Y-43909800D01*
X83256265Y-43909800D02*
X83208646Y-43862180D01*
X83208646Y-43862180D02*
X83184836Y-43814561D01*
X83184836Y-43814561D02*
X83161027Y-43719323D01*
X83161027Y-43719323D02*
X83161027Y-43647895D01*
X83161027Y-43647895D02*
X83184836Y-43552657D01*
X83184836Y-43552657D02*
X83208646Y-43505038D01*
X83208646Y-43505038D02*
X83256265Y-43457419D01*
X83256265Y-43457419D02*
X83327693Y-43433609D01*
X83327693Y-43433609D02*
X83375312Y-43433609D01*
X83375312Y-43433609D02*
X83446741Y-43457419D01*
X83446741Y-43457419D02*
X83470550Y-43481228D01*
X83661027Y-43909800D02*
X83732455Y-43933609D01*
X83732455Y-43933609D02*
X83851503Y-43933609D01*
X83851503Y-43933609D02*
X83899122Y-43909800D01*
X83899122Y-43909800D02*
X83922931Y-43885990D01*
X83922931Y-43885990D02*
X83946741Y-43838371D01*
X83946741Y-43838371D02*
X83946741Y-43790752D01*
X83946741Y-43790752D02*
X83922931Y-43743133D01*
X83922931Y-43743133D02*
X83899122Y-43719323D01*
X83899122Y-43719323D02*
X83851503Y-43695514D01*
X83851503Y-43695514D02*
X83756265Y-43671704D01*
X83756265Y-43671704D02*
X83708646Y-43647895D01*
X83708646Y-43647895D02*
X83684836Y-43624085D01*
X83684836Y-43624085D02*
X83661027Y-43576466D01*
X83661027Y-43576466D02*
X83661027Y-43528847D01*
X83661027Y-43528847D02*
X83684836Y-43481228D01*
X83684836Y-43481228D02*
X83708646Y-43457419D01*
X83708646Y-43457419D02*
X83756265Y-43433609D01*
X83756265Y-43433609D02*
X83875312Y-43433609D01*
X83875312Y-43433609D02*
X83946741Y-43457419D01*
X83184836Y-45933609D02*
X83184836Y-45433609D01*
X83184836Y-45433609D02*
X83303884Y-45433609D01*
X83303884Y-45433609D02*
X83375312Y-45457419D01*
X83375312Y-45457419D02*
X83422931Y-45505038D01*
X83422931Y-45505038D02*
X83446741Y-45552657D01*
X83446741Y-45552657D02*
X83470550Y-45647895D01*
X83470550Y-45647895D02*
X83470550Y-45719323D01*
X83470550Y-45719323D02*
X83446741Y-45814561D01*
X83446741Y-45814561D02*
X83422931Y-45862180D01*
X83422931Y-45862180D02*
X83375312Y-45909800D01*
X83375312Y-45909800D02*
X83303884Y-45933609D01*
X83303884Y-45933609D02*
X83184836Y-45933609D01*
X83970550Y-45885990D02*
X83946741Y-45909800D01*
X83946741Y-45909800D02*
X83875312Y-45933609D01*
X83875312Y-45933609D02*
X83827693Y-45933609D01*
X83827693Y-45933609D02*
X83756265Y-45909800D01*
X83756265Y-45909800D02*
X83708646Y-45862180D01*
X83708646Y-45862180D02*
X83684836Y-45814561D01*
X83684836Y-45814561D02*
X83661027Y-45719323D01*
X83661027Y-45719323D02*
X83661027Y-45647895D01*
X83661027Y-45647895D02*
X83684836Y-45552657D01*
X83684836Y-45552657D02*
X83708646Y-45505038D01*
X83708646Y-45505038D02*
X83756265Y-45457419D01*
X83756265Y-45457419D02*
X83827693Y-45433609D01*
X83827693Y-45433609D02*
X83875312Y-45433609D01*
X83875312Y-45433609D02*
X83946741Y-45457419D01*
X83946741Y-45457419D02*
X83970550Y-45481228D01*
X83470550Y-48933609D02*
X83303884Y-48695514D01*
X83184836Y-48933609D02*
X83184836Y-48433609D01*
X83184836Y-48433609D02*
X83375312Y-48433609D01*
X83375312Y-48433609D02*
X83422931Y-48457419D01*
X83422931Y-48457419D02*
X83446741Y-48481228D01*
X83446741Y-48481228D02*
X83470550Y-48528847D01*
X83470550Y-48528847D02*
X83470550Y-48600276D01*
X83470550Y-48600276D02*
X83446741Y-48647895D01*
X83446741Y-48647895D02*
X83422931Y-48671704D01*
X83422931Y-48671704D02*
X83375312Y-48695514D01*
X83375312Y-48695514D02*
X83184836Y-48695514D01*
X83684836Y-48671704D02*
X83851503Y-48671704D01*
X83922931Y-48933609D02*
X83684836Y-48933609D01*
X83684836Y-48933609D02*
X83684836Y-48433609D01*
X83684836Y-48433609D02*
X83922931Y-48433609D01*
X84113408Y-48909800D02*
X84184836Y-48933609D01*
X84184836Y-48933609D02*
X84303884Y-48933609D01*
X84303884Y-48933609D02*
X84351503Y-48909800D01*
X84351503Y-48909800D02*
X84375312Y-48885990D01*
X84375312Y-48885990D02*
X84399122Y-48838371D01*
X84399122Y-48838371D02*
X84399122Y-48790752D01*
X84399122Y-48790752D02*
X84375312Y-48743133D01*
X84375312Y-48743133D02*
X84351503Y-48719323D01*
X84351503Y-48719323D02*
X84303884Y-48695514D01*
X84303884Y-48695514D02*
X84208646Y-48671704D01*
X84208646Y-48671704D02*
X84161027Y-48647895D01*
X84161027Y-48647895D02*
X84137217Y-48624085D01*
X84137217Y-48624085D02*
X84113408Y-48576466D01*
X84113408Y-48576466D02*
X84113408Y-48528847D01*
X84113408Y-48528847D02*
X84137217Y-48481228D01*
X84137217Y-48481228D02*
X84161027Y-48457419D01*
X84161027Y-48457419D02*
X84208646Y-48433609D01*
X84208646Y-48433609D02*
X84327693Y-48433609D01*
X84327693Y-48433609D02*
X84399122Y-48457419D01*
X83161027Y-50909800D02*
X83232455Y-50933609D01*
X83232455Y-50933609D02*
X83351503Y-50933609D01*
X83351503Y-50933609D02*
X83399122Y-50909800D01*
X83399122Y-50909800D02*
X83422931Y-50885990D01*
X83422931Y-50885990D02*
X83446741Y-50838371D01*
X83446741Y-50838371D02*
X83446741Y-50790752D01*
X83446741Y-50790752D02*
X83422931Y-50743133D01*
X83422931Y-50743133D02*
X83399122Y-50719323D01*
X83399122Y-50719323D02*
X83351503Y-50695514D01*
X83351503Y-50695514D02*
X83256265Y-50671704D01*
X83256265Y-50671704D02*
X83208646Y-50647895D01*
X83208646Y-50647895D02*
X83184836Y-50624085D01*
X83184836Y-50624085D02*
X83161027Y-50576466D01*
X83161027Y-50576466D02*
X83161027Y-50528847D01*
X83161027Y-50528847D02*
X83184836Y-50481228D01*
X83184836Y-50481228D02*
X83208646Y-50457419D01*
X83208646Y-50457419D02*
X83256265Y-50433609D01*
X83256265Y-50433609D02*
X83375312Y-50433609D01*
X83375312Y-50433609D02*
X83446741Y-50457419D01*
X83661026Y-50933609D02*
X83661026Y-50433609D01*
X83661026Y-50433609D02*
X83780074Y-50433609D01*
X83780074Y-50433609D02*
X83851502Y-50457419D01*
X83851502Y-50457419D02*
X83899121Y-50505038D01*
X83899121Y-50505038D02*
X83922931Y-50552657D01*
X83922931Y-50552657D02*
X83946740Y-50647895D01*
X83946740Y-50647895D02*
X83946740Y-50719323D01*
X83946740Y-50719323D02*
X83922931Y-50814561D01*
X83922931Y-50814561D02*
X83899121Y-50862180D01*
X83899121Y-50862180D02*
X83851502Y-50909800D01*
X83851502Y-50909800D02*
X83780074Y-50933609D01*
X83780074Y-50933609D02*
X83661026Y-50933609D01*
X84137217Y-50790752D02*
X84375312Y-50790752D01*
X84089598Y-50933609D02*
X84256264Y-50433609D01*
X84256264Y-50433609D02*
X84422931Y-50933609D01*
X83161027Y-53909800D02*
X83232455Y-53933609D01*
X83232455Y-53933609D02*
X83351503Y-53933609D01*
X83351503Y-53933609D02*
X83399122Y-53909800D01*
X83399122Y-53909800D02*
X83422931Y-53885990D01*
X83422931Y-53885990D02*
X83446741Y-53838371D01*
X83446741Y-53838371D02*
X83446741Y-53790752D01*
X83446741Y-53790752D02*
X83422931Y-53743133D01*
X83422931Y-53743133D02*
X83399122Y-53719323D01*
X83399122Y-53719323D02*
X83351503Y-53695514D01*
X83351503Y-53695514D02*
X83256265Y-53671704D01*
X83256265Y-53671704D02*
X83208646Y-53647895D01*
X83208646Y-53647895D02*
X83184836Y-53624085D01*
X83184836Y-53624085D02*
X83161027Y-53576466D01*
X83161027Y-53576466D02*
X83161027Y-53528847D01*
X83161027Y-53528847D02*
X83184836Y-53481228D01*
X83184836Y-53481228D02*
X83208646Y-53457419D01*
X83208646Y-53457419D02*
X83256265Y-53433609D01*
X83256265Y-53433609D02*
X83375312Y-53433609D01*
X83375312Y-53433609D02*
X83446741Y-53457419D01*
X83946740Y-53885990D02*
X83922931Y-53909800D01*
X83922931Y-53909800D02*
X83851502Y-53933609D01*
X83851502Y-53933609D02*
X83803883Y-53933609D01*
X83803883Y-53933609D02*
X83732455Y-53909800D01*
X83732455Y-53909800D02*
X83684836Y-53862180D01*
X83684836Y-53862180D02*
X83661026Y-53814561D01*
X83661026Y-53814561D02*
X83637217Y-53719323D01*
X83637217Y-53719323D02*
X83637217Y-53647895D01*
X83637217Y-53647895D02*
X83661026Y-53552657D01*
X83661026Y-53552657D02*
X83684836Y-53505038D01*
X83684836Y-53505038D02*
X83732455Y-53457419D01*
X83732455Y-53457419D02*
X83803883Y-53433609D01*
X83803883Y-53433609D02*
X83851502Y-53433609D01*
X83851502Y-53433609D02*
X83922931Y-53457419D01*
X83922931Y-53457419D02*
X83946740Y-53481228D01*
X84161026Y-53933609D02*
X84161026Y-53433609D01*
X84446740Y-53933609D02*
X84232455Y-53647895D01*
X84446740Y-53433609D02*
X84161026Y-53719323D01*
X83113408Y-55433609D02*
X83280074Y-55933609D01*
X83280074Y-55933609D02*
X83446741Y-55433609D01*
X83899121Y-55885990D02*
X83875312Y-55909800D01*
X83875312Y-55909800D02*
X83803883Y-55933609D01*
X83803883Y-55933609D02*
X83756264Y-55933609D01*
X83756264Y-55933609D02*
X83684836Y-55909800D01*
X83684836Y-55909800D02*
X83637217Y-55862180D01*
X83637217Y-55862180D02*
X83613407Y-55814561D01*
X83613407Y-55814561D02*
X83589598Y-55719323D01*
X83589598Y-55719323D02*
X83589598Y-55647895D01*
X83589598Y-55647895D02*
X83613407Y-55552657D01*
X83613407Y-55552657D02*
X83637217Y-55505038D01*
X83637217Y-55505038D02*
X83684836Y-55457419D01*
X83684836Y-55457419D02*
X83756264Y-55433609D01*
X83756264Y-55433609D02*
X83803883Y-55433609D01*
X83803883Y-55433609D02*
X83875312Y-55457419D01*
X83875312Y-55457419D02*
X83899121Y-55481228D01*
X84399121Y-55885990D02*
X84375312Y-55909800D01*
X84375312Y-55909800D02*
X84303883Y-55933609D01*
X84303883Y-55933609D02*
X84256264Y-55933609D01*
X84256264Y-55933609D02*
X84184836Y-55909800D01*
X84184836Y-55909800D02*
X84137217Y-55862180D01*
X84137217Y-55862180D02*
X84113407Y-55814561D01*
X84113407Y-55814561D02*
X84089598Y-55719323D01*
X84089598Y-55719323D02*
X84089598Y-55647895D01*
X84089598Y-55647895D02*
X84113407Y-55552657D01*
X84113407Y-55552657D02*
X84137217Y-55505038D01*
X84137217Y-55505038D02*
X84184836Y-55457419D01*
X84184836Y-55457419D02*
X84256264Y-55433609D01*
X84256264Y-55433609D02*
X84303883Y-55433609D01*
X84303883Y-55433609D02*
X84375312Y-55457419D01*
X84375312Y-55457419D02*
X84399121Y-55481228D01*
X83446741Y-58457419D02*
X83399122Y-58433609D01*
X83399122Y-58433609D02*
X83327693Y-58433609D01*
X83327693Y-58433609D02*
X83256265Y-58457419D01*
X83256265Y-58457419D02*
X83208646Y-58505038D01*
X83208646Y-58505038D02*
X83184836Y-58552657D01*
X83184836Y-58552657D02*
X83161027Y-58647895D01*
X83161027Y-58647895D02*
X83161027Y-58719323D01*
X83161027Y-58719323D02*
X83184836Y-58814561D01*
X83184836Y-58814561D02*
X83208646Y-58862180D01*
X83208646Y-58862180D02*
X83256265Y-58909800D01*
X83256265Y-58909800D02*
X83327693Y-58933609D01*
X83327693Y-58933609D02*
X83375312Y-58933609D01*
X83375312Y-58933609D02*
X83446741Y-58909800D01*
X83446741Y-58909800D02*
X83470550Y-58885990D01*
X83470550Y-58885990D02*
X83470550Y-58719323D01*
X83470550Y-58719323D02*
X83375312Y-58719323D01*
X83684836Y-58933609D02*
X83684836Y-58433609D01*
X83684836Y-58433609D02*
X83970550Y-58933609D01*
X83970550Y-58933609D02*
X83970550Y-58433609D01*
X84208646Y-58933609D02*
X84208646Y-58433609D01*
X84208646Y-58433609D02*
X84327694Y-58433609D01*
X84327694Y-58433609D02*
X84399122Y-58457419D01*
X84399122Y-58457419D02*
X84446741Y-58505038D01*
X84446741Y-58505038D02*
X84470551Y-58552657D01*
X84470551Y-58552657D02*
X84494360Y-58647895D01*
X84494360Y-58647895D02*
X84494360Y-58719323D01*
X84494360Y-58719323D02*
X84470551Y-58814561D01*
X84470551Y-58814561D02*
X84446741Y-58862180D01*
X84446741Y-58862180D02*
X84399122Y-58909800D01*
X84399122Y-58909800D02*
X84327694Y-58933609D01*
X84327694Y-58933609D02*
X84208646Y-58933609D01*
X160872419Y-50696115D02*
X161681942Y-50696115D01*
X161681942Y-50696115D02*
X161777180Y-50648496D01*
X161777180Y-50648496D02*
X161824800Y-50600877D01*
X161824800Y-50600877D02*
X161872419Y-50505639D01*
X161872419Y-50505639D02*
X161872419Y-50315163D01*
X161872419Y-50315163D02*
X161824800Y-50219925D01*
X161824800Y-50219925D02*
X161777180Y-50172306D01*
X161777180Y-50172306D02*
X161681942Y-50124687D01*
X161681942Y-50124687D02*
X160872419Y-50124687D01*
X161872419Y-49648496D02*
X160872419Y-49648496D01*
X160872419Y-49648496D02*
X160872419Y-49267544D01*
X160872419Y-49267544D02*
X160920038Y-49172306D01*
X160920038Y-49172306D02*
X160967657Y-49124687D01*
X160967657Y-49124687D02*
X161062895Y-49077068D01*
X161062895Y-49077068D02*
X161205752Y-49077068D01*
X161205752Y-49077068D02*
X161300990Y-49124687D01*
X161300990Y-49124687D02*
X161348609Y-49172306D01*
X161348609Y-49172306D02*
X161396228Y-49267544D01*
X161396228Y-49267544D02*
X161396228Y-49648496D01*
X175872419Y-65219925D02*
X175872419Y-65696115D01*
X175872419Y-65696115D02*
X174872419Y-65696115D01*
X175348609Y-64886591D02*
X175348609Y-64553258D01*
X175872419Y-64410401D02*
X175872419Y-64886591D01*
X175872419Y-64886591D02*
X174872419Y-64886591D01*
X174872419Y-64886591D02*
X174872419Y-64410401D01*
X175348609Y-63648496D02*
X175348609Y-63981829D01*
X175872419Y-63981829D02*
X174872419Y-63981829D01*
X174872419Y-63981829D02*
X174872419Y-63505639D01*
X174872419Y-63267543D02*
X174872419Y-62696115D01*
X175872419Y-62981829D02*
X174872419Y-62981829D01*
X191872419Y-51696115D02*
X190872419Y-51696115D01*
X190872419Y-51696115D02*
X190872419Y-51458020D01*
X190872419Y-51458020D02*
X190920038Y-51315163D01*
X190920038Y-51315163D02*
X191015276Y-51219925D01*
X191015276Y-51219925D02*
X191110514Y-51172306D01*
X191110514Y-51172306D02*
X191300990Y-51124687D01*
X191300990Y-51124687D02*
X191443847Y-51124687D01*
X191443847Y-51124687D02*
X191634323Y-51172306D01*
X191634323Y-51172306D02*
X191729561Y-51219925D01*
X191729561Y-51219925D02*
X191824800Y-51315163D01*
X191824800Y-51315163D02*
X191872419Y-51458020D01*
X191872419Y-51458020D02*
X191872419Y-51696115D01*
X190872419Y-50505639D02*
X190872419Y-50315163D01*
X190872419Y-50315163D02*
X190920038Y-50219925D01*
X190920038Y-50219925D02*
X191015276Y-50124687D01*
X191015276Y-50124687D02*
X191205752Y-50077068D01*
X191205752Y-50077068D02*
X191539085Y-50077068D01*
X191539085Y-50077068D02*
X191729561Y-50124687D01*
X191729561Y-50124687D02*
X191824800Y-50219925D01*
X191824800Y-50219925D02*
X191872419Y-50315163D01*
X191872419Y-50315163D02*
X191872419Y-50505639D01*
X191872419Y-50505639D02*
X191824800Y-50600877D01*
X191824800Y-50600877D02*
X191729561Y-50696115D01*
X191729561Y-50696115D02*
X191539085Y-50743734D01*
X191539085Y-50743734D02*
X191205752Y-50743734D01*
X191205752Y-50743734D02*
X191015276Y-50696115D01*
X191015276Y-50696115D02*
X190920038Y-50600877D01*
X190920038Y-50600877D02*
X190872419Y-50505639D01*
X190872419Y-49743734D02*
X191872419Y-49505639D01*
X191872419Y-49505639D02*
X191158133Y-49315163D01*
X191158133Y-49315163D02*
X191872419Y-49124687D01*
X191872419Y-49124687D02*
X190872419Y-48886592D01*
X191872419Y-48505639D02*
X190872419Y-48505639D01*
X190872419Y-48505639D02*
X191872419Y-47934211D01*
X191872419Y-47934211D02*
X190872419Y-47934211D01*
X175872419Y-36124687D02*
X175396228Y-36458020D01*
X175872419Y-36696115D02*
X174872419Y-36696115D01*
X174872419Y-36696115D02*
X174872419Y-36315163D01*
X174872419Y-36315163D02*
X174920038Y-36219925D01*
X174920038Y-36219925D02*
X174967657Y-36172306D01*
X174967657Y-36172306D02*
X175062895Y-36124687D01*
X175062895Y-36124687D02*
X175205752Y-36124687D01*
X175205752Y-36124687D02*
X175300990Y-36172306D01*
X175300990Y-36172306D02*
X175348609Y-36219925D01*
X175348609Y-36219925D02*
X175396228Y-36315163D01*
X175396228Y-36315163D02*
X175396228Y-36696115D01*
X175872419Y-35696115D02*
X174872419Y-35696115D01*
X174920038Y-34696116D02*
X174872419Y-34791354D01*
X174872419Y-34791354D02*
X174872419Y-34934211D01*
X174872419Y-34934211D02*
X174920038Y-35077068D01*
X174920038Y-35077068D02*
X175015276Y-35172306D01*
X175015276Y-35172306D02*
X175110514Y-35219925D01*
X175110514Y-35219925D02*
X175300990Y-35267544D01*
X175300990Y-35267544D02*
X175443847Y-35267544D01*
X175443847Y-35267544D02*
X175634323Y-35219925D01*
X175634323Y-35219925D02*
X175729561Y-35172306D01*
X175729561Y-35172306D02*
X175824800Y-35077068D01*
X175824800Y-35077068D02*
X175872419Y-34934211D01*
X175872419Y-34934211D02*
X175872419Y-34838973D01*
X175872419Y-34838973D02*
X175824800Y-34696116D01*
X175824800Y-34696116D02*
X175777180Y-34648497D01*
X175777180Y-34648497D02*
X175443847Y-34648497D01*
X175443847Y-34648497D02*
X175443847Y-34838973D01*
X175872419Y-34219925D02*
X174872419Y-34219925D01*
X175348609Y-34219925D02*
X175348609Y-33648497D01*
X175872419Y-33648497D02*
X174872419Y-33648497D01*
X174872419Y-33315163D02*
X174872419Y-32743735D01*
X175872419Y-33029449D02*
X174872419Y-33029449D01*
X211824800Y-36743734D02*
X211872419Y-36600877D01*
X211872419Y-36600877D02*
X211872419Y-36362782D01*
X211872419Y-36362782D02*
X211824800Y-36267544D01*
X211824800Y-36267544D02*
X211777180Y-36219925D01*
X211777180Y-36219925D02*
X211681942Y-36172306D01*
X211681942Y-36172306D02*
X211586704Y-36172306D01*
X211586704Y-36172306D02*
X211491466Y-36219925D01*
X211491466Y-36219925D02*
X211443847Y-36267544D01*
X211443847Y-36267544D02*
X211396228Y-36362782D01*
X211396228Y-36362782D02*
X211348609Y-36553258D01*
X211348609Y-36553258D02*
X211300990Y-36648496D01*
X211300990Y-36648496D02*
X211253371Y-36696115D01*
X211253371Y-36696115D02*
X211158133Y-36743734D01*
X211158133Y-36743734D02*
X211062895Y-36743734D01*
X211062895Y-36743734D02*
X210967657Y-36696115D01*
X210967657Y-36696115D02*
X210920038Y-36648496D01*
X210920038Y-36648496D02*
X210872419Y-36553258D01*
X210872419Y-36553258D02*
X210872419Y-36315163D01*
X210872419Y-36315163D02*
X210920038Y-36172306D01*
X211348609Y-35743734D02*
X211348609Y-35410401D01*
X211872419Y-35267544D02*
X211872419Y-35743734D01*
X211872419Y-35743734D02*
X210872419Y-35743734D01*
X210872419Y-35743734D02*
X210872419Y-35267544D01*
X211872419Y-34362782D02*
X211872419Y-34838972D01*
X211872419Y-34838972D02*
X210872419Y-34838972D01*
X211348609Y-34029448D02*
X211348609Y-33696115D01*
X211872419Y-33553258D02*
X211872419Y-34029448D01*
X211872419Y-34029448D02*
X210872419Y-34029448D01*
X210872419Y-34029448D02*
X210872419Y-33553258D01*
X211777180Y-32553258D02*
X211824800Y-32600877D01*
X211824800Y-32600877D02*
X211872419Y-32743734D01*
X211872419Y-32743734D02*
X211872419Y-32838972D01*
X211872419Y-32838972D02*
X211824800Y-32981829D01*
X211824800Y-32981829D02*
X211729561Y-33077067D01*
X211729561Y-33077067D02*
X211634323Y-33124686D01*
X211634323Y-33124686D02*
X211443847Y-33172305D01*
X211443847Y-33172305D02*
X211300990Y-33172305D01*
X211300990Y-33172305D02*
X211110514Y-33124686D01*
X211110514Y-33124686D02*
X211015276Y-33077067D01*
X211015276Y-33077067D02*
X210920038Y-32981829D01*
X210920038Y-32981829D02*
X210872419Y-32838972D01*
X210872419Y-32838972D02*
X210872419Y-32743734D01*
X210872419Y-32743734D02*
X210920038Y-32600877D01*
X210920038Y-32600877D02*
X210967657Y-32553258D01*
X210872419Y-32267543D02*
X210872419Y-31696115D01*
X211872419Y-31981829D02*
X210872419Y-31981829D01*
X51303884Y-45872419D02*
X51303884Y-44872419D01*
X51303884Y-44872419D02*
X51541979Y-44872419D01*
X51541979Y-44872419D02*
X51684836Y-44920038D01*
X51684836Y-44920038D02*
X51780074Y-45015276D01*
X51780074Y-45015276D02*
X51827693Y-45110514D01*
X51827693Y-45110514D02*
X51875312Y-45300990D01*
X51875312Y-45300990D02*
X51875312Y-45443847D01*
X51875312Y-45443847D02*
X51827693Y-45634323D01*
X51827693Y-45634323D02*
X51780074Y-45729561D01*
X51780074Y-45729561D02*
X51684836Y-45824800D01*
X51684836Y-45824800D02*
X51541979Y-45872419D01*
X51541979Y-45872419D02*
X51303884Y-45872419D01*
X52256265Y-44967657D02*
X52303884Y-44920038D01*
X52303884Y-44920038D02*
X52399122Y-44872419D01*
X52399122Y-44872419D02*
X52637217Y-44872419D01*
X52637217Y-44872419D02*
X52732455Y-44920038D01*
X52732455Y-44920038D02*
X52780074Y-44967657D01*
X52780074Y-44967657D02*
X52827693Y-45062895D01*
X52827693Y-45062895D02*
X52827693Y-45158133D01*
X52827693Y-45158133D02*
X52780074Y-45300990D01*
X52780074Y-45300990D02*
X52208646Y-45872419D01*
X52208646Y-45872419D02*
X52827693Y-45872419D01*
X53161027Y-44872419D02*
X53827693Y-44872419D01*
X53827693Y-44872419D02*
X53399122Y-45872419D01*
D11*
X48666668Y-29434819D02*
X48666668Y-30149104D01*
X48666668Y-30149104D02*
X48619049Y-30291961D01*
X48619049Y-30291961D02*
X48523811Y-30387200D01*
X48523811Y-30387200D02*
X48380954Y-30434819D01*
X48380954Y-30434819D02*
X48285716Y-30434819D01*
X49047621Y-29434819D02*
X49666668Y-29434819D01*
X49666668Y-29434819D02*
X49333335Y-29815771D01*
X49333335Y-29815771D02*
X49476192Y-29815771D01*
X49476192Y-29815771D02*
X49571430Y-29863390D01*
X49571430Y-29863390D02*
X49619049Y-29911009D01*
X49619049Y-29911009D02*
X49666668Y-30006247D01*
X49666668Y-30006247D02*
X49666668Y-30244342D01*
X49666668Y-30244342D02*
X49619049Y-30339580D01*
X49619049Y-30339580D02*
X49571430Y-30387200D01*
X49571430Y-30387200D02*
X49476192Y-30434819D01*
X49476192Y-30434819D02*
X49190478Y-30434819D01*
X49190478Y-30434819D02*
X49095240Y-30387200D01*
X49095240Y-30387200D02*
X49047621Y-30339580D01*
X23436668Y-28934819D02*
X23436668Y-29649104D01*
X23436668Y-29649104D02*
X23389049Y-29791961D01*
X23389049Y-29791961D02*
X23293811Y-29887200D01*
X23293811Y-29887200D02*
X23150954Y-29934819D01*
X23150954Y-29934819D02*
X23055716Y-29934819D01*
X23865240Y-29030057D02*
X23912859Y-28982438D01*
X23912859Y-28982438D02*
X24008097Y-28934819D01*
X24008097Y-28934819D02*
X24246192Y-28934819D01*
X24246192Y-28934819D02*
X24341430Y-28982438D01*
X24341430Y-28982438D02*
X24389049Y-29030057D01*
X24389049Y-29030057D02*
X24436668Y-29125295D01*
X24436668Y-29125295D02*
X24436668Y-29220533D01*
X24436668Y-29220533D02*
X24389049Y-29363390D01*
X24389049Y-29363390D02*
X23817621Y-29934819D01*
X23817621Y-29934819D02*
X24436668Y-29934819D01*
X79891666Y-60844819D02*
X79891666Y-61559104D01*
X79891666Y-61559104D02*
X79844047Y-61701961D01*
X79844047Y-61701961D02*
X79748809Y-61797200D01*
X79748809Y-61797200D02*
X79605952Y-61844819D01*
X79605952Y-61844819D02*
X79510714Y-61844819D01*
X80891666Y-61844819D02*
X80320238Y-61844819D01*
X80605952Y-61844819D02*
X80605952Y-60844819D01*
X80605952Y-60844819D02*
X80510714Y-60987676D01*
X80510714Y-60987676D02*
X80415476Y-61082914D01*
X80415476Y-61082914D02*
X80320238Y-61130533D01*
D12*
%TO.C,J3*%
X50330002Y-31420000D02*
X50330002Y-32750000D01*
X50330002Y-34020000D02*
X50330002Y-69640000D01*
X49000002Y-31420000D02*
X50330002Y-31420000D01*
X47670002Y-34020000D02*
X50330002Y-34020000D01*
X47670002Y-34020000D02*
X47670002Y-69640000D01*
X47670002Y-69640000D02*
X50330002Y-69640000D01*
%TO.C,J2*%
X22440002Y-69140000D02*
X25100002Y-69140000D01*
X22440002Y-33520000D02*
X22440002Y-69140000D01*
X22440002Y-33520000D02*
X25100002Y-33520000D01*
X23770002Y-30920000D02*
X25100002Y-30920000D01*
X25100002Y-33520000D02*
X25100002Y-69140000D01*
X25100002Y-30920000D02*
X25100002Y-32250000D01*
%TO.C,SW5*%
X163750000Y-47750000D02*
X163750000Y-52250000D01*
X166250000Y-53500000D02*
X167750000Y-53500000D01*
X167750000Y-46500000D02*
X166250000Y-46500000D01*
X170250000Y-52250000D02*
X170250000Y-47750000D01*
%TO.C,SW3*%
X178750000Y-64250000D02*
X178750000Y-65750000D01*
X180000000Y-68250000D02*
X184500000Y-68250000D01*
X184500000Y-61750000D02*
X180000000Y-61750000D01*
X185750000Y-65750000D02*
X185750000Y-64250000D01*
%TO.C,SW2*%
X178750000Y-34250000D02*
X178750000Y-35750000D01*
X180000000Y-38250000D02*
X184500000Y-38250000D01*
X184500000Y-31750000D02*
X180000000Y-31750000D01*
X185750000Y-35750000D02*
X185750000Y-34250000D01*
%TO.C,J1*%
X78895000Y-57350000D02*
X78895000Y-39510000D01*
X78895000Y-59950000D02*
X78895000Y-58620000D01*
X80225000Y-59950000D02*
X78895000Y-59950000D01*
X81555000Y-39510000D02*
X78895000Y-39510000D01*
X81555000Y-57350000D02*
X78895000Y-57350000D01*
X81555000Y-57350000D02*
X81555000Y-39510000D01*
%TO.C,SW1*%
X214000000Y-32750000D02*
X214000000Y-37250000D01*
X216500000Y-38500000D02*
X218000000Y-38500000D01*
X218000000Y-31500000D02*
X216500000Y-31500000D01*
X220500000Y-37250000D02*
X220500000Y-32750000D01*
%TO.C,SW4*%
X194000000Y-47750000D02*
X194000000Y-52250000D01*
X196500000Y-53500000D02*
X198000000Y-53500000D01*
X198000000Y-46500000D02*
X196500000Y-46500000D01*
X200500000Y-52250000D02*
X200500000Y-47750000D01*
%TD*%
M02*
