%TF.GenerationSoftware,KiCad,Pcbnew,9.0.4*%
%TF.CreationDate,2026-05-15T12:53:48-04:00*%
%TF.ProjectId,PocketPlay-ESP32,506f636b-6574-4506-9c61-792d45535033,rev?*%
%TF.SameCoordinates,Original*%
%TF.FileFunction,Copper,L1,Top*%
%TF.FilePolarity,Positive*%
%FSLAX46Y46*%
G04 Gerber Fmt 4.6, Leading zero omitted, Abs format (unit mm)*
G04 Created by KiCad (PCBNEW 9.0.4) date 2026-05-15 12:53:48*
%MOMM*%
%LPD*%
G01*
G04 APERTURE LIST*
%TA.AperFunction,ComponentPad*%
%ADD10R,1.700000X1.700000*%
%TD*%
%TA.AperFunction,ComponentPad*%
%ADD11C,1.700000*%
%TD*%
%TA.AperFunction,ComponentPad*%
%ADD12C,2.000000*%
%TD*%
%TA.AperFunction,Conductor*%
%ADD13C,0.200000*%
%TD*%
G04 APERTURE END LIST*
D10*
%TO.P,J3,1,Pin_1*%
%TO.N,unconnected-(J3-Pin_1-Pad1)*%
X49000002Y-32750000D03*
D11*
%TO.P,J3,2,Pin_2*%
%TO.N,unconnected-(J3-Pin_2-Pad2)*%
X49000002Y-35290000D03*
%TO.P,J3,3,Pin_3*%
%TO.N,unconnected-(J3-Pin_3-Pad3)*%
X49000002Y-37830000D03*
%TO.P,J3,4,Pin_4*%
%TO.N,unconnected-(J3-Pin_4-Pad4)*%
X49000002Y-40370000D03*
%TO.P,J3,5,Pin_5*%
%TO.N,unconnected-(J3-Pin_5-Pad5)*%
X49000002Y-42910000D03*
%TO.P,J3,6,Pin_6*%
%TO.N,Net-(J3-Pin_6)*%
X49000002Y-45450000D03*
%TO.P,J3,7,Pin_7*%
%TO.N,Net-(J3-Pin_7)*%
X49000002Y-47990000D03*
%TO.P,J3,8,Pin_8*%
%TO.N,Net-(J3-Pin_8)*%
X49000002Y-50530000D03*
%TO.P,J3,9,Pin_9*%
%TO.N,Net-(J3-Pin_9)*%
X49000002Y-53070000D03*
%TO.P,J3,10,Pin_10*%
%TO.N,Net-(J3-Pin_10)*%
X49000002Y-55610000D03*
%TO.P,J3,11,Pin_11*%
%TO.N,unconnected-(J3-Pin_11-Pad11)*%
X49000002Y-58150000D03*
%TO.P,J3,12,Pin_12*%
%TO.N,unconnected-(J3-Pin_12-Pad12)*%
X49000002Y-60690000D03*
%TO.P,J3,13,Pin_13*%
%TO.N,unconnected-(J3-Pin_13-Pad13)*%
X49000002Y-63230000D03*
%TO.P,J3,14,Pin_14*%
%TO.N,Net-(J3-Pin_14)*%
X49000002Y-65770000D03*
%TO.P,J3,15,Pin_15*%
%TO.N,unconnected-(J3-Pin_15-Pad15)*%
X49000002Y-68310000D03*
%TD*%
%TO.P,J2,15,Pin_15*%
%TO.N,Net-(J1-Pin_4)*%
X23770002Y-67810000D03*
%TO.P,J2,14,Pin_14*%
%TO.N,Net-(J1-Pin_7)*%
X23770002Y-65270000D03*
%TO.P,J2,13,Pin_13*%
%TO.N,unconnected-(J2-Pin_13-Pad13)*%
X23770002Y-62730000D03*
%TO.P,J2,12,Pin_12*%
%TO.N,unconnected-(J2-Pin_12-Pad12)*%
X23770002Y-60190000D03*
%TO.P,J2,11,Pin_11*%
%TO.N,Net-(J1-Pin_6)*%
X23770002Y-57650000D03*
%TO.P,J2,10,Pin_10*%
%TO.N,unconnected-(J2-Pin_10-Pad10)*%
X23770002Y-55110000D03*
%TO.P,J2,9,Pin_9*%
%TO.N,Net-(J1-Pin_3)*%
X23770002Y-52570000D03*
%TO.P,J2,8,Pin_8*%
%TO.N,unconnected-(J2-Pin_8-Pad8)*%
X23770002Y-50030000D03*
%TO.P,J2,7,Pin_7*%
%TO.N,unconnected-(J2-Pin_7-Pad7)*%
X23770002Y-47490000D03*
%TO.P,J2,6,Pin_6*%
%TO.N,unconnected-(J2-Pin_6-Pad6)*%
X23770002Y-44950000D03*
%TO.P,J2,5,Pin_5*%
%TO.N,Net-(J1-Pin_5)*%
X23770002Y-42410000D03*
%TO.P,J2,4,Pin_4*%
%TO.N,unconnected-(J2-Pin_4-Pad4)*%
X23770002Y-39870000D03*
%TO.P,J2,3,Pin_3*%
%TO.N,unconnected-(J2-Pin_3-Pad3)*%
X23770002Y-37330000D03*
%TO.P,J2,2,Pin_2*%
%TO.N,Net-(J1-Pin_1)*%
X23770002Y-34790000D03*
D10*
%TO.P,J2,1,Pin_1*%
%TO.N,Net-(J1-Pin_2)*%
X23770002Y-32250000D03*
%TD*%
D12*
%TO.P,SW5,1,1*%
%TO.N,Net-(J3-Pin_6)*%
X164750000Y-53250000D03*
X164750000Y-46750000D03*
%TO.P,SW5,2,2*%
%TO.N,Net-(J3-Pin_14)*%
X169250000Y-53250000D03*
X169250000Y-46750000D03*
%TD*%
%TO.P,SW3,1,1*%
%TO.N,Net-(J3-Pin_8)*%
X185500000Y-67250000D03*
X179000000Y-67250000D03*
%TO.P,SW3,2,2*%
%TO.N,Net-(J3-Pin_14)*%
X185500000Y-62750000D03*
X179000000Y-62750000D03*
%TD*%
%TO.P,SW2,1,1*%
%TO.N,Net-(J3-Pin_9)*%
X185500000Y-37250000D03*
X179000000Y-37250000D03*
%TO.P,SW2,2,2*%
%TO.N,Net-(J3-Pin_14)*%
X185500000Y-32750000D03*
X179000000Y-32750000D03*
%TD*%
D10*
%TO.P,J1,1,Pin_1*%
%TO.N,Net-(J1-Pin_1)*%
X80225000Y-58620000D03*
D11*
%TO.P,J1,2,Pin_2*%
%TO.N,Net-(J1-Pin_2)*%
X80225000Y-56080000D03*
%TO.P,J1,3,Pin_3*%
%TO.N,Net-(J1-Pin_3)*%
X80225000Y-53540000D03*
%TO.P,J1,4,Pin_4*%
%TO.N,Net-(J1-Pin_4)*%
X80225000Y-51000000D03*
%TO.P,J1,5,Pin_5*%
%TO.N,Net-(J1-Pin_5)*%
X80225000Y-48460000D03*
%TO.P,J1,6,Pin_6*%
%TO.N,Net-(J1-Pin_6)*%
X80225000Y-45920000D03*
%TO.P,J1,7,Pin_7*%
%TO.N,Net-(J1-Pin_7)*%
X80225000Y-43380000D03*
%TO.P,J1,8,Pin_8*%
%TO.N,Net-(J1-Pin_2)*%
X80225000Y-40840000D03*
%TD*%
D12*
%TO.P,SW1,1,1*%
%TO.N,Net-(J3-Pin_10)*%
X215000000Y-38250000D03*
X215000000Y-31750000D03*
%TO.P,SW1,2,2*%
%TO.N,Net-(J3-Pin_14)*%
X219500000Y-38250000D03*
X219500000Y-31750000D03*
%TD*%
%TO.P,SW4,1,1*%
%TO.N,Net-(J3-Pin_7)*%
X199500000Y-46750000D03*
X199500000Y-53250000D03*
%TO.P,SW4,2,2*%
%TO.N,Net-(J3-Pin_14)*%
X195000000Y-46750000D03*
X195000000Y-53250000D03*
%TD*%
D13*
%TO.N,Net-(J1-Pin_6)*%
X21350000Y-57650000D02*
X23770002Y-57650000D01*
X21000000Y-58000000D02*
X21350000Y-57650000D01*
X17000000Y-58000000D02*
X21000000Y-58000000D01*
X13000000Y-54000000D02*
X17000000Y-58000000D01*
X13000000Y-32000000D02*
X13000000Y-54000000D01*
X25000000Y-20000000D02*
X13000000Y-32000000D01*
X65000000Y-20000000D02*
X25000000Y-20000000D01*
X72000000Y-27000000D02*
X65000000Y-20000000D01*
X72000000Y-44000000D02*
X72000000Y-27000000D01*
X75000000Y-47000000D02*
X72000000Y-44000000D01*
X79145000Y-47000000D02*
X75000000Y-47000000D01*
X80225000Y-45920000D02*
X79145000Y-47000000D01*
%TO.N,Net-(J1-Pin_5)*%
X27590000Y-42410000D02*
X23770002Y-42410000D01*
X29000000Y-41000000D02*
X27590000Y-42410000D01*
X29000000Y-31000000D02*
X29000000Y-41000000D01*
X37000000Y-23000000D02*
X29000000Y-31000000D01*
X65000000Y-23000000D02*
X37000000Y-23000000D01*
X71000000Y-29000000D02*
X65000000Y-23000000D01*
X71000000Y-45000000D02*
X71000000Y-29000000D01*
X74460000Y-48460000D02*
X71000000Y-45000000D01*
X80225000Y-48460000D02*
X74460000Y-48460000D01*
%TO.N,Net-(J1-Pin_4)*%
X26580002Y-65000000D02*
X23770002Y-67810000D01*
X33000000Y-65000000D02*
X26580002Y-65000000D01*
X34000000Y-64000000D02*
X33000000Y-65000000D01*
X34000000Y-33000000D02*
X34000000Y-64000000D01*
X40000000Y-27000000D02*
X34000000Y-33000000D01*
X59000000Y-27000000D02*
X40000000Y-27000000D01*
X63000000Y-31000000D02*
X59000000Y-27000000D01*
X63000000Y-60000000D02*
X63000000Y-31000000D01*
X70000000Y-67000000D02*
X63000000Y-60000000D01*
X90000000Y-67000000D02*
X70000000Y-67000000D01*
X92000000Y-65000000D02*
X90000000Y-67000000D01*
X92000000Y-54000000D02*
X92000000Y-65000000D01*
X90000000Y-52000000D02*
X92000000Y-54000000D01*
X81225000Y-52000000D02*
X90000000Y-52000000D01*
X80225000Y-51000000D02*
X81225000Y-52000000D01*
%TO.N,Net-(J1-Pin_3)*%
X29430000Y-52570000D02*
X23770002Y-52570000D01*
X32000000Y-50000000D02*
X29430000Y-52570000D01*
X32000000Y-32000000D02*
X32000000Y-50000000D01*
X39000000Y-25000000D02*
X32000000Y-32000000D01*
X64000000Y-25000000D02*
X39000000Y-25000000D01*
X69000000Y-30000000D02*
X64000000Y-25000000D01*
X69000000Y-51000000D02*
X69000000Y-30000000D01*
X71000000Y-53000000D02*
X69000000Y-51000000D01*
X79685000Y-53000000D02*
X71000000Y-53000000D01*
X80225000Y-53540000D02*
X79685000Y-53000000D01*
%TO.N,Net-(J3-Pin_6)*%
X56450000Y-45450000D02*
X49000002Y-45450000D01*
X59000000Y-48000000D02*
X56450000Y-45450000D01*
X59000000Y-72000000D02*
X59000000Y-48000000D01*
X63000000Y-76000000D02*
X59000000Y-72000000D01*
X158000000Y-76000000D02*
X63000000Y-76000000D01*
X160000000Y-74000000D02*
X158000000Y-76000000D01*
X160000000Y-51500000D02*
X160000000Y-74000000D01*
X164750000Y-46750000D02*
X160000000Y-51500000D01*
%TO.N,Net-(J3-Pin_14)*%
X195000000Y-46750000D02*
X190250000Y-42000000D01*
%TO.N,Net-(J3-Pin_8)*%
X51530000Y-50530000D02*
X49000002Y-50530000D01*
X52000000Y-51000000D02*
X51530000Y-50530000D01*
X55000000Y-51000000D02*
X52000000Y-51000000D01*
X56000000Y-75000000D02*
X56000000Y-52000000D01*
X59000000Y-78000000D02*
X56000000Y-75000000D01*
X168000000Y-78000000D02*
X59000000Y-78000000D01*
X171000000Y-75000000D02*
X168000000Y-78000000D01*
X171000000Y-72000000D02*
X171000000Y-75000000D01*
X56000000Y-52000000D02*
X55000000Y-51000000D01*
X175750000Y-67250000D02*
X171000000Y-72000000D01*
X179000000Y-67250000D02*
X175750000Y-67250000D01*
%TO.N,Net-(J3-Pin_9)*%
X44070000Y-53070000D02*
X49000002Y-53070000D01*
X44000000Y-53000000D02*
X44070000Y-53070000D01*
X42000000Y-55000000D02*
X44000000Y-53000000D01*
X42000000Y-77000000D02*
X42000000Y-55000000D01*
X49000000Y-84000000D02*
X42000000Y-77000000D01*
X243000000Y-84000000D02*
X49000000Y-84000000D01*
X246000000Y-81000000D02*
X243000000Y-84000000D01*
X246000000Y-18000000D02*
X246000000Y-81000000D01*
X242000000Y-14000000D02*
X246000000Y-18000000D01*
X171000000Y-14000000D02*
X242000000Y-14000000D01*
X167000000Y-18000000D02*
X171000000Y-14000000D01*
X167000000Y-33000000D02*
X167000000Y-18000000D01*
X171250000Y-37250000D02*
X167000000Y-33000000D01*
X179000000Y-37250000D02*
X171250000Y-37250000D01*
%TO.N,Net-(J3-Pin_10)*%
X45000000Y-56000000D02*
X48610002Y-56000000D01*
X44000000Y-57000000D02*
X45000000Y-56000000D01*
X48610002Y-56000000D02*
X49000002Y-55610000D01*
X44000000Y-77000000D02*
X44000000Y-57000000D01*
X48000000Y-81000000D02*
X44000000Y-77000000D01*
X240000000Y-81000000D02*
X48000000Y-81000000D01*
X243000000Y-78000000D02*
X240000000Y-81000000D01*
X243000000Y-21000000D02*
X243000000Y-78000000D01*
X240000000Y-18000000D02*
X243000000Y-21000000D01*
X207000000Y-18000000D02*
X240000000Y-18000000D01*
X205000000Y-20000000D02*
X207000000Y-18000000D01*
X205000000Y-33000000D02*
X205000000Y-20000000D01*
X207000000Y-35000000D02*
X205000000Y-33000000D01*
X207000000Y-38000000D02*
X207000000Y-35000000D01*
X240000000Y-18000000D02*
X239000000Y-18000000D01*
X207250000Y-38250000D02*
X207000000Y-38000000D01*
X215000000Y-38250000D02*
X207250000Y-38250000D01*
%TO.N,Net-(J3-Pin_14)*%
X169500000Y-53250000D02*
X169250000Y-53250000D01*
X179000000Y-62750000D02*
X169500000Y-53250000D01*
X195000000Y-53250000D02*
X185500000Y-62750000D01*
X219000000Y-41000000D02*
X219500000Y-40500000D01*
X219500000Y-40500000D02*
X219500000Y-38250000D01*
X216000000Y-43000000D02*
X218000000Y-41000000D01*
X198750000Y-43000000D02*
X216000000Y-43000000D01*
X195000000Y-46750000D02*
X198750000Y-43000000D01*
X218000000Y-41000000D02*
X219000000Y-41000000D01*
X189000000Y-40750000D02*
X195000000Y-46750000D01*
X189000000Y-33000000D02*
X189000000Y-40750000D01*
X188750000Y-32750000D02*
X189000000Y-33000000D01*
X185500000Y-32750000D02*
X188750000Y-32750000D01*
%TO.N,Net-(J1-Pin_5)*%
X80000000Y-48685000D02*
X80000000Y-49000000D01*
%TO.N,Net-(J3-Pin_14)*%
X195000000Y-46750000D02*
X195000000Y-53250000D01*
X219500000Y-38250000D02*
X219500000Y-31750000D01*
X185500000Y-32750000D02*
X179000000Y-32750000D01*
X169250000Y-53250000D02*
X169250000Y-46750000D01*
X185500000Y-62750000D02*
X179000000Y-62750000D01*
%TO.N,Net-(J3-Pin_10)*%
X215000000Y-38250000D02*
X215000000Y-31750000D01*
%TO.N,Net-(J3-Pin_9)*%
X185500000Y-37250000D02*
X179000000Y-37250000D01*
%TO.N,Net-(J3-Pin_6)*%
X164750000Y-46750000D02*
X164750000Y-53250000D01*
%TO.N,Net-(J3-Pin_8)*%
X185500000Y-67250000D02*
X179000000Y-67250000D01*
%TD*%
M02*
