M48
; DRILL file {KiCad 9.0.4} date 2026-05-15T12:53:51-0400
; FORMAT={-:-/ absolute / metric / decimal}
; #@! TF.CreationDate,2026-05-15T12:53:51-04:00
; #@! TF.GenerationSoftware,Kicad,Pcbnew,9.0.4
; #@! TF.FileFunction,Plated,1,2,PTH
FMAT,2
METRIC
; #@! TA.AperFunction,Plated,PTH,ComponentDrill
T1C1.000
; #@! TA.AperFunction,Plated,PTH,ComponentDrill
T2C1.100
%
G90
G05
T1
X23.77Y-32.25
X23.77Y-34.79
X23.77Y-37.33
X23.77Y-39.87
X23.77Y-42.41
X23.77Y-44.95
X23.77Y-47.49
X23.77Y-50.03
X23.77Y-52.57
X23.77Y-55.11
X23.77Y-57.65
X23.77Y-60.19
X23.77Y-62.73
X23.77Y-65.27
X23.77Y-67.81
X49.0Y-32.75
X49.0Y-35.29
X49.0Y-37.83
X49.0Y-40.37
X49.0Y-42.91
X49.0Y-45.45
X49.0Y-47.99
X49.0Y-50.53
X49.0Y-53.07
X49.0Y-55.61
X49.0Y-58.15
X49.0Y-60.69
X49.0Y-63.23
X49.0Y-65.77
X49.0Y-68.31
X80.225Y-40.84
X80.225Y-43.38
X80.225Y-45.92
X80.225Y-48.46
X80.225Y-51.0
X80.225Y-53.54
X80.225Y-56.08
X80.225Y-58.62
T2
X164.75Y-46.75
X164.75Y-53.25
X169.25Y-46.75
X169.25Y-53.25
X179.0Y-32.75
X179.0Y-37.25
X179.0Y-62.75
X179.0Y-67.25
X185.5Y-32.75
X185.5Y-37.25
X185.5Y-62.75
X185.5Y-67.25
X195.0Y-46.75
X195.0Y-53.25
X199.5Y-46.75
X199.5Y-53.25
X215.0Y-31.75
X215.0Y-38.25
X219.5Y-31.75
X219.5Y-38.25
M30
