%TF.GenerationSoftware,KiCad,Pcbnew,9.0.4*%
%TF.CreationDate,2026-05-15T12:53:48-04:00*%
%TF.ProjectId,PocketPlay-ESP32,506f636b-6574-4506-9c61-792d45535033,rev?*%
%TF.SameCoordinates,Original*%
%TF.FileFunction,Copper,L2,Bot*%
%TF.FilePolarity,Positive*%
%FSLAX46Y46*%
G04 Gerber Fmt 4.6, Leading zero omitted, Abs format (unit mm)*
G04 Created by KiCad (PCBNEW 9.0.4) date 2026-05-15 12:53:48*
%MOMM*%
%LPD*%
G01*
G04 APERTURE LIST*
%TA.AperFunction,ComponentPad*%
%ADD10R,1.700000X1.700000*%
%TD*%
%TA.AperFunction,ComponentPad*%
%ADD11C,1.700000*%
%TD*%
%TA.AperFunction,ComponentPad*%
%ADD12C,2.000000*%
%TD*%
%TA.AperFunction,Conductor*%
%ADD13C,0.200000*%
%TD*%
G04 APERTURE END LIST*
D10*
%TO.P,J3,1,Pin_1*%
%TO.N,unconnected-(J3-Pin_1-Pad1)*%
X49000002Y-32750000D03*
D11*
%TO.P,J3,2,Pin_2*%
%TO.N,unconnected-(J3-Pin_2-Pad2)*%
X49000002Y-35290000D03*
%TO.P,J3,3,Pin_3*%
%TO.N,unconnected-(J3-Pin_3-Pad3)*%
X49000002Y-37830000D03*
%TO.P,J3,4,Pin_4*%
%TO.N,unconnected-(J3-Pin_4-Pad4)*%
X49000002Y-40370000D03*
%TO.P,J3,5,Pin_5*%
%TO.N,unconnected-(J3-Pin_5-Pad5)*%
X49000002Y-42910000D03*
%TO.P,J3,6,Pin_6*%
%TO.N,Net-(J3-Pin_6)*%
X49000002Y-45450000D03*
%TO.P,J3,7,Pin_7*%
%TO.N,Net-(J3-Pin_7)*%
X49000002Y-47990000D03*
%TO.P,J3,8,Pin_8*%
%TO.N,Net-(J3-Pin_8)*%
X49000002Y-50530000D03*
%TO.P,J3,9,Pin_9*%
%TO.N,Net-(J3-Pin_9)*%
X49000002Y-53070000D03*
%TO.P,J3,10,Pin_10*%
%TO.N,Net-(J3-Pin_10)*%
X49000002Y-55610000D03*
%TO.P,J3,11,Pin_11*%
%TO.N,unconnected-(J3-Pin_11-Pad11)*%
X49000002Y-58150000D03*
%TO.P,J3,12,Pin_12*%
%TO.N,unconnected-(J3-Pin_12-Pad12)*%
X49000002Y-60690000D03*
%TO.P,J3,13,Pin_13*%
%TO.N,unconnected-(J3-Pin_13-Pad13)*%
X49000002Y-63230000D03*
%TO.P,J3,14,Pin_14*%
%TO.N,Net-(J3-Pin_14)*%
X49000002Y-65770000D03*
%TO.P,J3,15,Pin_15*%
%TO.N,unconnected-(J3-Pin_15-Pad15)*%
X49000002Y-68310000D03*
%TD*%
%TO.P,J2,15,Pin_15*%
%TO.N,Net-(J1-Pin_4)*%
X23770002Y-67810000D03*
%TO.P,J2,14,Pin_14*%
%TO.N,Net-(J1-Pin_7)*%
X23770002Y-65270000D03*
%TO.P,J2,13,Pin_13*%
%TO.N,unconnected-(J2-Pin_13-Pad13)*%
X23770002Y-62730000D03*
%TO.P,J2,12,Pin_12*%
%TO.N,unconnected-(J2-Pin_12-Pad12)*%
X23770002Y-60190000D03*
%TO.P,J2,11,Pin_11*%
%TO.N,Net-(J1-Pin_6)*%
X23770002Y-57650000D03*
%TO.P,J2,10,Pin_10*%
%TO.N,unconnected-(J2-Pin_10-Pad10)*%
X23770002Y-55110000D03*
%TO.P,J2,9,Pin_9*%
%TO.N,Net-(J1-Pin_3)*%
X23770002Y-52570000D03*
%TO.P,J2,8,Pin_8*%
%TO.N,unconnected-(J2-Pin_8-Pad8)*%
X23770002Y-50030000D03*
%TO.P,J2,7,Pin_7*%
%TO.N,unconnected-(J2-Pin_7-Pad7)*%
X23770002Y-47490000D03*
%TO.P,J2,6,Pin_6*%
%TO.N,unconnected-(J2-Pin_6-Pad6)*%
X23770002Y-44950000D03*
%TO.P,J2,5,Pin_5*%
%TO.N,Net-(J1-Pin_5)*%
X23770002Y-42410000D03*
%TO.P,J2,4,Pin_4*%
%TO.N,unconnected-(J2-Pin_4-Pad4)*%
X23770002Y-39870000D03*
%TO.P,J2,3,Pin_3*%
%TO.N,unconnected-(J2-Pin_3-Pad3)*%
X23770002Y-37330000D03*
%TO.P,J2,2,Pin_2*%
%TO.N,Net-(J1-Pin_1)*%
X23770002Y-34790000D03*
D10*
%TO.P,J2,1,Pin_1*%
%TO.N,Net-(J1-Pin_2)*%
X23770002Y-32250000D03*
%TD*%
D12*
%TO.P,SW5,1,1*%
%TO.N,Net-(J3-Pin_6)*%
X164750000Y-53250000D03*
X164750000Y-46750000D03*
%TO.P,SW5,2,2*%
%TO.N,Net-(J3-Pin_14)*%
X169250000Y-53250000D03*
X169250000Y-46750000D03*
%TD*%
%TO.P,SW3,1,1*%
%TO.N,Net-(J3-Pin_8)*%
X185500000Y-67250000D03*
X179000000Y-67250000D03*
%TO.P,SW3,2,2*%
%TO.N,Net-(J3-Pin_14)*%
X185500000Y-62750000D03*
X179000000Y-62750000D03*
%TD*%
%TO.P,SW2,1,1*%
%TO.N,Net-(J3-Pin_9)*%
X185500000Y-37250000D03*
X179000000Y-37250000D03*
%TO.P,SW2,2,2*%
%TO.N,Net-(J3-Pin_14)*%
X185500000Y-32750000D03*
X179000000Y-32750000D03*
%TD*%
D10*
%TO.P,J1,1,Pin_1*%
%TO.N,Net-(J1-Pin_1)*%
X80225000Y-58620000D03*
D11*
%TO.P,J1,2,Pin_2*%
%TO.N,Net-(J1-Pin_2)*%
X80225000Y-56080000D03*
%TO.P,J1,3,Pin_3*%
%TO.N,Net-(J1-Pin_3)*%
X80225000Y-53540000D03*
%TO.P,J1,4,Pin_4*%
%TO.N,Net-(J1-Pin_4)*%
X80225000Y-51000000D03*
%TO.P,J1,5,Pin_5*%
%TO.N,Net-(J1-Pin_5)*%
X80225000Y-48460000D03*
%TO.P,J1,6,Pin_6*%
%TO.N,Net-(J1-Pin_6)*%
X80225000Y-45920000D03*
%TO.P,J1,7,Pin_7*%
%TO.N,Net-(J1-Pin_7)*%
X80225000Y-43380000D03*
%TO.P,J1,8,Pin_8*%
%TO.N,Net-(J1-Pin_2)*%
X80225000Y-40840000D03*
%TD*%
D12*
%TO.P,SW1,1,1*%
%TO.N,Net-(J3-Pin_10)*%
X215000000Y-38250000D03*
X215000000Y-31750000D03*
%TO.P,SW1,2,2*%
%TO.N,Net-(J3-Pin_14)*%
X219500000Y-38250000D03*
X219500000Y-31750000D03*
%TD*%
%TO.P,SW4,1,1*%
%TO.N,Net-(J3-Pin_7)*%
X199500000Y-46750000D03*
X199500000Y-53250000D03*
%TO.P,SW4,2,2*%
%TO.N,Net-(J3-Pin_14)*%
X195000000Y-46750000D03*
X195000000Y-53250000D03*
%TD*%
D13*
%TO.N,Net-(J1-Pin_2)*%
X23770002Y-24229998D02*
X23770002Y-32250000D01*
X89000000Y-21000000D02*
X88000000Y-20000000D01*
X89000000Y-38000000D02*
X89000000Y-21000000D01*
X28000000Y-20000000D02*
X23770002Y-24229998D01*
X86160000Y-40840000D02*
X89000000Y-38000000D01*
X88000000Y-20000000D02*
X28000000Y-20000000D01*
X80225000Y-40840000D02*
X86160000Y-40840000D01*
%TO.N,Net-(J1-Pin_7)*%
X18270000Y-65270000D02*
X23770002Y-65270000D01*
X13000000Y-24000000D02*
X13000000Y-60000000D01*
X19000000Y-18000000D02*
X13000000Y-24000000D01*
X89000000Y-18000000D02*
X19000000Y-18000000D01*
X91000000Y-20000000D02*
X89000000Y-18000000D01*
X91000000Y-39000000D02*
X91000000Y-20000000D01*
X88000000Y-42000000D02*
X91000000Y-39000000D01*
X81605000Y-42000000D02*
X88000000Y-42000000D01*
X80225000Y-43380000D02*
X81605000Y-42000000D01*
X13000000Y-60000000D02*
X18270000Y-65270000D01*
%TO.N,Net-(J1-Pin_2)*%
X75000000Y-42000000D02*
X79065000Y-42000000D01*
X79065000Y-42000000D02*
X80225000Y-40840000D01*
X75000000Y-54000000D02*
X75000000Y-42000000D01*
X77080000Y-56080000D02*
X75000000Y-54000000D01*
X80225000Y-56080000D02*
X77080000Y-56080000D01*
%TO.N,Net-(J1-Pin_1)*%
X52000000Y-26000000D02*
X32560002Y-26000000D01*
X32560002Y-26000000D02*
X23770002Y-34790000D01*
X73000000Y-58000000D02*
X73000000Y-47000000D01*
X73620000Y-58620000D02*
X73000000Y-58000000D01*
X80225000Y-58620000D02*
X73620000Y-58620000D01*
X73000000Y-47000000D02*
X52000000Y-26000000D01*
%TO.N,Net-(J3-Pin_7)*%
X52990000Y-47990000D02*
X49000002Y-47990000D01*
X56000000Y-51000000D02*
X52990000Y-47990000D01*
X56000000Y-67000000D02*
X56000000Y-51000000D01*
X58000000Y-69000000D02*
X56000000Y-67000000D01*
X148000000Y-69000000D02*
X58000000Y-69000000D01*
X158000000Y-59000000D02*
X148000000Y-69000000D01*
X158000000Y-44000000D02*
X158000000Y-59000000D01*
X159000000Y-43000000D02*
X158000000Y-44000000D01*
X195750000Y-43000000D02*
X159000000Y-43000000D01*
X199500000Y-46750000D02*
X195750000Y-43000000D01*
%TO.N,Net-(J3-Pin_14)*%
X55000000Y-70000000D02*
X53230002Y-70000000D01*
X56000000Y-71000000D02*
X55000000Y-70000000D01*
X151500000Y-71000000D02*
X56000000Y-71000000D01*
X169250000Y-53250000D02*
X151500000Y-71000000D01*
X53230002Y-70000000D02*
X49000002Y-65770000D01*
X178750000Y-62750000D02*
X179000000Y-62750000D01*
%TO.N,Net-(J3-Pin_7)*%
X199500000Y-46750000D02*
X199500000Y-53250000D01*
%TD*%
M02*
